<svg width="58" height="58" viewBox="0 0 58 58" fill="none" xmlns="http://www.w3.org/2000/svg">
<path d="M56.2598 26.83C39.4886 21.545 32.9897 9.575 30.474 1.42C29.9499 -0.225001 27.6089 -0.225001 27.0848 1.42C22.0883 17.52 10.1038 24.17 1.8929 26.865C0.250711 27.39 0.285651 29.735 1.92784 30.225C17.2666 34.845 24.0799 47.9 26.945 56.405C27.5041 58.085 29.8451 57.98 30.3342 56.3C34.9463 39.255 47.6995 32.71 56.19 30.225C57.8671 29.735 57.902 27.355 56.2598 26.83ZM38.4403 29.35C35.5054 30.225 31.1029 32.465 29.4957 38.38C29.321 38.975 28.5173 39.01 28.3426 38.415C27.3643 35.475 25.0233 30.96 19.7124 29.35C19.1534 29.175 19.1184 28.37 19.7124 28.195C22.5426 27.25 26.7004 24.975 28.4125 19.41C28.5872 18.85 29.3908 18.85 29.5655 19.41C30.439 22.21 32.6752 26.375 38.4753 28.195C39.0343 28.37 39.0343 29.175 38.4403 29.35Z" fill="url(#paint0_linear_257_21)"/>
<defs>
<linearGradient id="paint0_linear_257_21" x1="5.95697" y1="17.9336" x2="57.16" y2="42.5153" gradientUnits="userSpaceOnUse">
<stop stop-color="#5931BA"/>
<stop offset="1" stop-color="#597EBA"/>
</linearGradient>
</defs>
</svg>
